<?xml version="1.0" encoding="UTF-8" standalone="no"?>
<svg
   width="846.57788"
   height="48.583782"
   viewBox="0 0 846.57788 48.583782"
   fill="none"
   version="1.1"
   id="svg42"
   sodipodi:docname="Contact line.svg"
   inkscape:version="1.3.2 (091e20e, 2023-11-25, custom)"
   xmlns:inkscape="http://www.inkscape.org/namespaces/inkscape"
   xmlns:sodipodi="http://sodipodi.sourceforge.net/DTD/sodipodi-0.dtd"
   xmlns="http://www.w3.org/2000/svg"
   xmlns:svg="http://www.w3.org/2000/svg">
  <defs
     id="defs42" />
  <sodipodi:namedview
     id="namedview42"
     pagecolor="#ffffff"
     bordercolor="#000000"
     borderopacity="0.25"
     inkscape:showpageshadow="2"
     inkscape:pageopacity="0.0"
     inkscape:pagecheckerboard="0"
     inkscape:deskcolor="#d1d1d1"
     inkscape:zoom="0.75978065"
     inkscape:cx="333.64893"
     inkscape:cy="88.183346"
     inkscape:window-width="1920"
     inkscape:window-height="1013"
     inkscape:window-x="-9"
     inkscape:window-y="545"
     inkscape:window-maximized="1"
     inkscape:current-layer="svg42">
    <inkscape:page
       x="0"
       y="0"
       width="846.57788"
       height="48.583782"
       id="page43"
       margin="0 38.157562 57.701679 0"
       bleed="0" />
  </sodipodi:namedview>
  <path
     d="m 13.86,42.9 c 1.892,0 3.542,-0.286 4.95,-0.858 1.452,-0.572 2.684,-1.364 3.696,-2.376 1.012,-1.012 1.848,-2.222 2.508,-3.63 C 25.718,34.584 26.29,33 26.73,31.284 l 0.198,-0.792 h 5.544 l -0.198,0.792 c -0.66,2.64 -1.496,5.016 -2.508,7.128 -0.968,2.068 -2.2,3.828 -3.696,5.28 -1.452,1.408 -3.234,2.486 -5.346,3.234 -2.112,0.748 -4.62,1.122 -7.524,1.122 -2.156,0 -4.048,-0.308 -5.676,-0.924 C 5.896,46.508 4.51,45.65 3.366,44.55 2.266,43.406 1.43,42.064 0.858,40.524 0.286,38.984 0,37.268 0,35.376 0,34.452 0.044,33.484 0.132,32.472 0.264,31.416 0.44,30.316 0.66,29.172 L 2.838,18.876 C 4.158,12.628 6.446,7.92 9.702,4.752 13.002,1.584 17.336,0 22.704,0 c 2.112,0 3.982,0.308 5.61,0.924 1.672,0.616 3.058,1.474 4.158,2.574 1.144,1.056 2.002,2.354 2.574,3.894 0.616,1.496 0.924,3.124 0.924,4.884 0,1.408 -0.198,2.904 -0.594,4.488 l -0.198,0.792 h -5.544 l 0.198,-0.792 c 0.22,-0.836 0.352,-1.562 0.396,-2.178 0.088,-0.66 0.132,-1.298 0.132,-1.914 0,-2.332 -0.682,-4.18 -2.046,-5.544 -1.32,-1.408 -3.476,-2.112 -6.468,-2.112 -1.76,0 -3.366,0.352 -4.818,1.056 -1.452,0.704 -2.75,1.694 -3.894,2.97 C 11.99,10.274 11,11.77 10.164,13.53 9.372,15.246 8.756,17.16 8.316,19.272 L 6.27,28.776 c -0.22,1.012 -0.396,1.958 -0.528,2.838 -0.088,0.88 -0.132,1.716 -0.132,2.508 0,2.948 0.66,5.148 1.98,6.6 1.32,1.452 3.41,2.178 6.27,2.178 z"
     fill="#000000"
     id="path8" />
  <path
     d="m 42.9861,18.876 c 1.276,-6.16 3.52,-10.846 6.732,-14.058 C 52.9741,1.606 57.3301,0 62.7861,0 c 4.268,0 7.524,1.232 9.768,3.696 2.288,2.42 3.432,5.786 3.432,10.098 0,0.88 -0.066,1.826 -0.198,2.838 -0.088,0.968 -0.242,1.958 -0.462,2.97 l -2.046,9.57 c -1.276,6.16 -3.542,10.846 -6.798,14.058 -3.212,3.212 -7.546,4.818 -13.002,4.818 -4.268,0 -7.546,-1.21 -9.834,-3.63 -2.244,-2.464 -3.366,-5.852 -3.366,-10.164 0,-0.88 0.044,-1.804 0.132,-2.772 0.132,-1.012 0.308,-2.024 0.528,-3.036 z m 11.286,24.156 c 1.804,0 3.432,-0.33 4.884,-0.99 1.496,-0.704 2.794,-1.672 3.894,-2.904 1.144,-1.276 2.09,-2.772 2.838,-4.488 0.792,-1.76 1.43,-3.718 1.914,-5.874 l 2.112,-9.9 c 0.352,-1.76 0.528,-3.3 0.528,-4.62 0,-2.86 -0.704,-5.104 -2.112,-6.732 -1.408,-1.672 -3.52,-2.508 -6.336,-2.508 -3.652,0 -6.6,1.298 -8.844,3.894 -2.2,2.596 -3.762,6.05 -4.686,10.362 l -2.112,9.9 c -0.352,1.76 -0.528,3.3 -0.528,4.62 0,2.86 0.704,5.126 2.112,6.798 1.408,1.628 3.52,2.442 6.336,2.442 z"
     fill="#000000"
     id="path9" />
  <path
     d="m 102.34,44.748 h 0.792 l 9.306,-43.824 h 5.544 l -9.834,46.2 H 97.2582 L 94.6182,3.3 h -0.792 l -9.306,43.824 h -5.544 l 9.834,-46.2 h 10.89 z"
     fill="#000000"
     id="path10" />
  <path
     d="m 125.526,0.924 h 33.198 v 5.148 h -13.398 l -8.712,41.052 h -5.544 l 8.712,-41.052 h -14.256 z"
     fill="#000000"
     id="path11" />
  <path
     d="m 186.794,35.64 h -18.546 l -5.61,11.484 h -6.27 l 22.902,-46.2 h 10.56 l 3.3,46.2 h -5.61 z m -16.038,-5.148 h 15.708 L 184.748,3.366 h -0.792 z"
     fill="#000000"
     id="path12" />
  <path
     d="m 215.921,42.9 c 1.892,0 3.542,-0.286 4.95,-0.858 1.452,-0.572 2.684,-1.364 3.696,-2.376 1.012,-1.012 1.848,-2.222 2.508,-3.63 0.704,-1.452 1.276,-3.036 1.716,-4.752 l 0.198,-0.792 h 5.544 l -0.198,0.792 c -0.66,2.64 -1.496,5.016 -2.508,7.128 -0.968,2.068 -2.2,3.828 -3.696,5.28 -1.452,1.408 -3.234,2.486 -5.346,3.234 -2.112,0.748 -4.62,1.122 -7.524,1.122 -2.156,0 -4.048,-0.308 -5.676,-0.924 -1.628,-0.616 -3.014,-1.474 -4.158,-2.574 -1.1,-1.144 -1.936,-2.486 -2.508,-4.026 -0.572,-1.54 -0.858,-3.256 -0.858,-5.148 0,-0.924 0.044,-1.892 0.132,-2.904 0.132,-1.056 0.308,-2.156 0.528,-3.3 l 2.178,-10.296 c 1.32,-6.248 3.608,-10.956 6.864,-14.124 3.3,-3.168 7.634,-4.752 13.002,-4.752 2.112,0 3.982,0.308 5.61,0.924 1.672,0.616 3.058,1.474 4.158,2.574 1.144,1.056 2.002,2.354 2.574,3.894 0.616,1.496 0.924,3.124 0.924,4.884 0,1.408 -0.198,2.904 -0.594,4.488 l -0.198,0.792 h -5.544 l 0.198,-0.792 c 0.22,-0.836 0.352,-1.562 0.396,-2.178 0.088,-0.66 0.132,-1.298 0.132,-1.914 0,-2.332 -0.682,-4.18 -2.046,-5.544 -1.32,-1.408 -3.476,-2.112 -6.468,-2.112 -1.76,0 -3.366,0.352 -4.818,1.056 -1.452,0.704 -2.75,1.694 -3.894,2.97 -1.144,1.232 -2.134,2.728 -2.97,4.488 -0.792,1.716 -1.408,3.63 -1.848,5.742 l -2.046,9.504 c -0.22,1.012 -0.396,1.958 -0.528,2.838 -0.088,0.88 -0.132,1.716 -0.132,2.508 0,2.948 0.66,5.148 1.98,6.6 1.32,1.452 3.41,2.178 6.27,2.178 z"
     fill="#000000"
     id="path13" />
  <path
     d="m 246.763,0.924 h 33.198 v 5.148 h -13.398 l -8.712,41.052 h -5.544 l 8.712,-41.052 h -14.256 z"
     fill="#000000"
     id="path14" />
  <path
     d="m 296.86,42.9 c 1.892,0 3.542,-0.286 4.95,-0.858 1.452,-0.572 2.684,-1.364 3.696,-2.376 1.012,-1.012 1.848,-2.222 2.508,-3.63 0.704,-1.452 1.276,-3.036 1.716,-4.752 l 0.198,-0.792 h 5.544 l -0.198,0.792 c -0.66,2.64 -1.496,5.016 -2.508,7.128 -0.968,2.068 -2.2,3.828 -3.696,5.28 -1.452,1.408 -3.234,2.486 -5.346,3.234 -2.112,0.748 -4.62,1.122 -7.524,1.122 -2.156,0 -4.048,-0.308 -5.676,-0.924 -1.628,-0.616 -3.014,-1.474 -4.158,-2.574 -1.1,-1.144 -1.936,-2.486 -2.508,-4.026 -0.572,-1.54 -0.858,-3.256 -0.858,-5.148 0,-0.924 0.044,-1.892 0.132,-2.904 0.132,-1.056 0.308,-2.156 0.528,-3.3 l 2.178,-10.296 c 1.32,-6.248 3.608,-10.956 6.864,-14.124 3.3,-3.168 7.634,-4.752 13.002,-4.752 2.112,0 3.982,0.308 5.61,0.924 1.672,0.616 3.058,1.474 4.158,2.574 1.144,1.056 2.002,2.354 2.574,3.894 0.616,1.496 0.924,3.124 0.924,4.884 0,1.408 -0.198,2.904 -0.594,4.488 l -0.198,0.792 h -5.544 l 0.198,-0.792 c 0.22,-0.836 0.352,-1.562 0.396,-2.178 0.088,-0.66 0.132,-1.298 0.132,-1.914 0,-2.332 -0.682,-4.18 -2.046,-5.544 -1.32,-1.408 -3.476,-2.112 -6.468,-2.112 -1.76,0 -3.366,0.352 -4.818,1.056 -1.452,0.704 -2.75,1.694 -3.894,2.97 -1.144,1.232 -2.134,2.728 -2.97,4.488 -0.792,1.716 -1.408,3.63 -1.848,5.742 l -2.046,9.504 c -0.22,1.012 -0.396,1.958 -0.528,2.838 -0.088,0.88 -0.132,1.716 -0.132,2.508 0,2.948 0.66,5.148 1.98,6.6 1.32,1.452 3.41,2.178 6.27,2.178 z"
     fill="#000000"
     id="path22" />
  <path
     d="m 325.986,18.876 c 1.276,-6.16 3.52,-10.846 6.732,-14.058 C 335.974,1.606 340.33,0 345.786,0 c 4.268,0 7.524,1.232 9.768,3.696 2.288,2.42 3.432,5.786 3.432,10.098 0,0.88 -0.066,1.826 -0.198,2.838 -0.088,0.968 -0.242,1.958 -0.462,2.97 l -2.046,9.57 c -1.276,6.16 -3.542,10.846 -6.798,14.058 -3.212,3.212 -7.546,4.818 -13.002,4.818 -4.268,0 -7.546,-1.21 -9.834,-3.63 -2.244,-2.464 -3.366,-5.852 -3.366,-10.164 0,-0.88 0.044,-1.804 0.132,-2.772 0.132,-1.012 0.308,-2.024 0.528,-3.036 z m 11.286,24.156 c 1.804,0 3.432,-0.33 4.884,-0.99 1.496,-0.704 2.794,-1.672 3.894,-2.904 1.144,-1.276 2.09,-2.772 2.838,-4.488 0.792,-1.76 1.43,-3.718 1.914,-5.874 l 2.112,-9.9 c 0.352,-1.76 0.528,-3.3 0.528,-4.62 0,-2.86 -0.704,-5.104 -2.112,-6.732 -1.408,-1.672 -3.52,-2.508 -6.336,-2.508 -3.652,0 -6.6,1.298 -8.844,3.894 -2.2,2.596 -3.762,6.05 -4.686,10.362 l -2.112,9.9 c -0.352,1.76 -0.528,3.3 -0.528,4.62 0,2.86 0.704,5.126 2.112,6.798 1.408,1.628 3.52,2.442 6.336,2.442 z"
     fill="#000000"
     id="path23" />
  <path
     d="m 385.34,44.748 h 0.792 l 9.306,-43.824 h 5.544 l -9.834,46.2 h -10.89 L 377.618,3.3 h -0.792 l -9.306,43.824 h -5.544 l 9.834,-46.2 h 10.89 z"
     fill="#000000"
     id="path24" />
  <path
     d="m 408.526,0.924 h 33.198 v 5.148 h -13.398 l -8.712,41.052 h -5.544 l 8.712,-41.052 h -14.256 z"
     fill="#000000"
     id="path25" />
  <path
     d="m 469.794,35.64 h -18.546 l -5.61,11.484 h -6.27 l 22.902,-46.2 h 10.56 l 3.3,46.2 h -5.61 z m -16.038,-5.148 h 15.708 L 467.748,3.366 h -0.792 z"
     fill="#000000"
     id="path26" />
  <path
     d="m 498.921,42.9 c 1.892,0 3.542,-0.286 4.95,-0.858 1.452,-0.572 2.684,-1.364 3.696,-2.376 1.012,-1.012 1.848,-2.222 2.508,-3.63 0.704,-1.452 1.276,-3.036 1.716,-4.752 l 0.198,-0.792 h 5.544 l -0.198,0.792 c -0.66,2.64 -1.496,5.016 -2.508,7.128 -0.968,2.068 -2.2,3.828 -3.696,5.28 -1.452,1.408 -3.234,2.486 -5.346,3.234 -2.112,0.748 -4.62,1.122 -7.524,1.122 -2.156,0 -4.048,-0.308 -5.676,-0.924 -1.628,-0.616 -3.014,-1.474 -4.158,-2.574 -1.1,-1.144 -1.936,-2.486 -2.508,-4.026 -0.572,-1.54 -0.858,-3.256 -0.858,-5.148 0,-0.924 0.044,-1.892 0.132,-2.904 0.132,-1.056 0.308,-2.156 0.528,-3.3 l 2.178,-10.296 c 1.32,-6.248 3.608,-10.956 6.864,-14.124 3.3,-3.168 7.634,-4.752 13.002,-4.752 2.112,0 3.982,0.308 5.61,0.924 1.672,0.616 3.058,1.474 4.158,2.574 1.144,1.056 2.002,2.354 2.574,3.894 0.616,1.496 0.924,3.124 0.924,4.884 0,1.408 -0.198,2.904 -0.594,4.488 l -0.198,0.792 h -5.544 l 0.198,-0.792 c 0.22,-0.836 0.352,-1.562 0.396,-2.178 0.088,-0.66 0.132,-1.298 0.132,-1.914 0,-2.332 -0.682,-4.18 -2.046,-5.544 -1.32,-1.408 -3.476,-2.112 -6.468,-2.112 -1.76,0 -3.366,0.352 -4.818,1.056 -1.452,0.704 -2.75,1.694 -3.894,2.97 -1.144,1.232 -2.134,2.728 -2.97,4.488 -0.792,1.716 -1.408,3.63 -1.848,5.742 l -2.046,9.504 c -0.22,1.012 -0.396,1.958 -0.528,2.838 -0.088,0.88 -0.132,1.716 -0.132,2.508 0,2.948 0.66,5.148 1.98,6.6 1.32,1.452 3.41,2.178 6.27,2.178 z"
     fill="#000000"
     id="path27" />
  <path
     d="m 529.763,0.924 h 33.198 v 5.148 h -13.398 l -8.712,41.052 h -5.544 l 8.712,-41.052 h -14.256 z"
     fill="#000000"
     id="path28" />
  <path
     d="m 579.86,42.9 c 1.892,0 3.542,-0.286 4.95,-0.858 1.452,-0.572 2.684,-1.364 3.696,-2.376 1.012,-1.012 1.848,-2.222 2.508,-3.63 0.704,-1.452 1.276,-3.036 1.716,-4.752 l 0.198,-0.792 h 5.544 l -0.198,0.792 c -0.66,2.64 -1.496,5.016 -2.508,7.128 -0.968,2.068 -2.2,3.828 -3.696,5.28 -1.452,1.408 -3.234,2.486 -5.346,3.234 -2.112,0.748 -4.62,1.122 -7.524,1.122 -2.156,0 -4.048,-0.308 -5.676,-0.924 -1.628,-0.616 -3.014,-1.474 -4.158,-2.574 -1.1,-1.144 -1.936,-2.486 -2.508,-4.026 -0.572,-1.54 -0.858,-3.256 -0.858,-5.148 0,-0.924 0.044,-1.892 0.132,-2.904 0.132,-1.056 0.308,-2.156 0.528,-3.3 l 2.178,-10.296 c 1.32,-6.248 3.608,-10.956 6.864,-14.124 3.3,-3.168 7.634,-4.752 13.002,-4.752 2.112,0 3.982,0.308 5.61,0.924 1.672,0.616 3.058,1.474 4.158,2.574 1.144,1.056 2.002,2.354 2.574,3.894 0.616,1.496 0.924,3.124 0.924,4.884 0,1.408 -0.198,2.904 -0.594,4.488 l -0.198,0.792 h -5.544 l 0.198,-0.792 c 0.22,-0.836 0.352,-1.562 0.396,-2.178 0.088,-0.66 0.132,-1.298 0.132,-1.914 0,-2.332 -0.682,-4.18 -2.046,-5.544 -1.32,-1.408 -3.476,-2.112 -6.468,-2.112 -1.76,0 -3.366,0.352 -4.818,1.056 -1.452,0.704 -2.75,1.694 -3.894,2.97 -1.144,1.232 -2.134,2.728 -2.97,4.488 -0.792,1.716 -1.408,3.63 -1.848,5.742 l -2.046,9.504 c -0.22,1.012 -0.396,1.958 -0.528,2.838 -0.088,0.88 -0.132,1.716 -0.132,2.508 0,2.948 0.66,5.148 1.98,6.6 1.32,1.452 3.41,2.178 6.27,2.178 z"
     fill="#000000"
     id="path36" />
  <path
     d="m 608.986,18.876 c 1.276,-6.16 3.52,-10.846 6.732,-14.058 C 618.974,1.606 623.33,0 628.786,0 c 4.268,0 7.524,1.232 9.768,3.696 2.288,2.42 3.432,5.786 3.432,10.098 0,0.88 -0.066,1.826 -0.198,2.838 -0.088,0.968 -0.242,1.958 -0.462,2.97 l -2.046,9.57 c -1.276,6.16 -3.542,10.846 -6.798,14.058 -3.212,3.212 -7.546,4.818 -13.002,4.818 -4.268,0 -7.546,-1.21 -9.834,-3.63 -2.244,-2.464 -3.366,-5.852 -3.366,-10.164 0,-0.88 0.044,-1.804 0.132,-2.772 0.132,-1.012 0.308,-2.024 0.528,-3.036 z m 11.286,24.156 c 1.804,0 3.432,-0.33 4.884,-0.99 1.496,-0.704 2.794,-1.672 3.894,-2.904 1.144,-1.276 2.09,-2.772 2.838,-4.488 0.792,-1.76 1.43,-3.718 1.914,-5.874 l 2.112,-9.9 c 0.352,-1.76 0.528,-3.3 0.528,-4.62 0,-2.86 -0.704,-5.104 -2.112,-6.732 -1.408,-1.672 -3.52,-2.508 -6.336,-2.508 -3.652,0 -6.6,1.298 -8.844,3.894 -2.2,2.596 -3.762,6.05 -4.686,10.362 l -2.112,9.9 c -0.352,1.76 -0.528,3.3 -0.528,4.62 0,2.86 0.704,5.126 2.112,6.798 1.408,1.628 3.52,2.442 6.336,2.442 z"
     fill="#000000"
     id="path37" />
  <path
     d="m 668.34,44.748 h 0.792 l 9.306,-43.824 h 5.544 l -9.834,46.2 h -10.89 L 660.618,3.3 h -0.792 l -9.306,43.824 h -5.544 l 9.834,-46.2 h 10.89 z"
     fill="#000000"
     id="path38" />
  <path
     d="m 691.526,0.924 h 33.198 v 5.148 h -13.398 l -8.712,41.052 h -5.544 l 8.712,-41.052 h -14.256 z"
     fill="#000000"
     id="path39" />
  <path
     d="m 752.794,35.64 h -18.546 l -5.61,11.484 h -6.27 l 22.902,-46.2 h 10.56 l 3.3,46.2 h -5.61 z m -16.038,-5.148 h 15.708 L 750.748,3.366 h -0.792 z"
     fill="#000000"
     id="path40" />
  <path
     d="m 781.921,42.9 c 1.892,0 3.542,-0.286 4.95,-0.858 1.452,-0.572 2.684,-1.364 3.696,-2.376 1.012,-1.012 1.848,-2.222 2.508,-3.63 0.704,-1.452 1.276,-3.036 1.716,-4.752 l 0.198,-0.792 h 5.544 l -0.198,0.792 c -0.66,2.64 -1.496,5.016 -2.508,7.128 -0.968,2.068 -2.2,3.828 -3.696,5.28 -1.452,1.408 -3.234,2.486 -5.346,3.234 -2.112,0.748 -4.62,1.122 -7.524,1.122 -2.156,0 -4.048,-0.308 -5.676,-0.924 -1.628,-0.616 -3.014,-1.474 -4.158,-2.574 -1.1,-1.144 -1.936,-2.486 -2.508,-4.026 -0.572,-1.54 -0.858,-3.256 -0.858,-5.148 0,-0.924 0.044,-1.892 0.132,-2.904 0.132,-1.056 0.308,-2.156 0.528,-3.3 l 2.178,-10.296 c 1.32,-6.248 3.608,-10.956 6.864,-14.124 3.3,-3.168 7.634,-4.752 13.002,-4.752 2.112,0 3.982,0.308 5.61,0.924 1.672,0.616 3.058,1.474 4.158,2.574 1.144,1.056 2.002,2.354 2.574,3.894 0.616,1.496 0.924,3.124 0.924,4.884 0,1.408 -0.198,2.904 -0.594,4.488 l -0.198,0.792 h -5.544 l 0.198,-0.792 c 0.22,-0.836 0.352,-1.562 0.396,-2.178 0.088,-0.66 0.132,-1.298 0.132,-1.914 0,-2.332 -0.682,-4.18 -2.046,-5.544 -1.32,-1.408 -3.476,-2.112 -6.468,-2.112 -1.76,0 -3.366,0.352 -4.818,1.056 -1.452,0.704 -2.75,1.694 -3.894,2.97 -1.144,1.232 -2.134,2.728 -2.97,4.488 -0.792,1.716 -1.408,3.63 -1.848,5.742 l -2.046,9.504 c -0.22,1.012 -0.396,1.958 -0.528,2.838 -0.088,0.88 -0.132,1.716 -0.132,2.508 0,2.948 0.66,5.148 1.98,6.6 1.32,1.452 3.41,2.178 6.27,2.178 z"
     fill="#000000"
     id="path41" />
  <path
     d="m 812.763,0.924 h 33.198 v 5.148 h -13.398 l -8.712,41.052 h -5.544 l 8.712,-41.052 h -14.256 z"
     fill="#000000"
     id="path42" />
</svg>
