<?xml version="1.0" encoding="UTF-8" standalone="no"?>
<svg
   width="34"
   height="34"
   viewBox="0 0 34 34"
   fill="none"
   version="1.1"
   id="svg8"
   sodipodi:docname="Icon_fullscreen.svg"
   inkscape:version="1.3.2 (091e20e, 2023-11-25, custom)"
   xmlns:inkscape="http://www.inkscape.org/namespaces/inkscape"
   xmlns:sodipodi="http://sodipodi.sourceforge.net/DTD/sodipodi-0.dtd"
   xmlns="http://www.w3.org/2000/svg"
   xmlns:svg="http://www.w3.org/2000/svg">
  <defs
     id="defs8" />
  <sodipodi:namedview
     id="namedview8"
     pagecolor="#ffffff"
     bordercolor="#000000"
     borderopacity="0.25"
     inkscape:showpageshadow="2"
     inkscape:pageopacity="0.0"
     inkscape:pagecheckerboard="0"
     inkscape:deskcolor="#d1d1d1"
     inkscape:zoom="14"
     inkscape:cx="17"
     inkscape:cy="16.964286"
     inkscape:window-width="1920"
     inkscape:window-height="1013"
     inkscape:window-x="-9"
     inkscape:window-y="545"
     inkscape:window-maximized="1"
     inkscape:current-layer="svg8" />
  <circle
     cx="17"
     cy="17"
     r="17"
     fill="black"
     id="circle1" />
  <line
     x1="15"
     y1="10.5"
     x2="10"
     y2="10.5"
     stroke="white"
     id="line1" />
  <line
     y1="-0.5"
     x2="5"
     y2="-0.5"
     transform="matrix(-1 8.74227e-08 8.74227e-08 1 15 24)"
     stroke="white"
     id="line2" />
  <line
     x1="9.5"
     y1="16"
     x2="9.5"
     y2="10"
     stroke="white"
     id="line3" />
  <line
     y1="-0.5"
     x2="6"
     y2="-0.5"
     transform="matrix(4.37114e-08 1 1 -4.37114e-08 10 18)"
     stroke="white"
     id="line4" />
  <line
     y1="-0.5"
     x2="5"
     y2="-0.5"
     transform="matrix(1 -8.74227e-08 -8.74227e-08 -1 19 10)"
     stroke="white"
     id="line5" />
  <line
     y1="-0.5"
     x2="6"
     y2="-0.5"
     transform="matrix(-4.37114e-08 -1 -1 4.37114e-08 24 16)"
     stroke="white"
     id="line6" />
  <line
     x1="19"
     y1="23.5"
     x2="24"
     y2="23.5"
     stroke="white"
     id="line7" />
  <line
     x1="24.5"
     y1="18"
     x2="24.5"
     y2="24"
     stroke="white"
     id="line8" />
</svg>
